<svg width="90" height="32" viewBox="0 0 90 32" fill="none" xmlns="http://www.w3.org/2000/svg">
<path d="M26 16C26 23.1797 20.1797 29 13 29C5.8203 29 0 23.1797 0 16C0 8.8203 5.8203 3 13 3C20.1797 3 26 8.8203 26 16ZM3.80036 16C3.80036 21.0808 7.91918 25.1996 13 25.1996C18.0808 25.1996 22.1996 21.0808 22.1996 16C22.1996 10.9192 18.0808 6.80036 13 6.80036C7.91918 6.80036 3.80036 10.9192 3.80036 16Z" fill="#306BFF"/>
<path d="M19.3064 15.4053C19.8442 15.3546 20.3282 15.7508 20.3067 16.2906C20.2793 16.9795 20.1546 17.6627 19.9348 18.3196C19.6114 19.2866 19.0893 20.1753 18.4021 20.9285C17.7148 21.6818 16.8777 22.283 15.9443 22.6935C15.011 23.1041 14.0021 23.3149 12.9825 23.3125C11.9628 23.31 10.9549 23.0944 10.0236 22.6793C9.09221 22.2643 8.25794 21.6591 7.57433 20.9025C6.89073 20.146 6.3729 19.2548 6.0541 18.2863C5.83752 17.6283 5.71605 16.9445 5.69196 16.2555C5.67309 15.7156 6.15896 15.3218 6.69654 15.3751C7.23411 15.4284 7.61735 15.91 7.66257 16.4483C7.69751 16.8644 7.78107 17.276 7.9123 17.6747C8.14581 18.3841 8.52511 19.0368 9.02583 19.591C9.52656 20.1451 10.1376 20.5885 10.8198 20.8925C11.502 21.1965 12.2403 21.3544 12.9871 21.3562C13.734 21.358 14.473 21.2036 15.1567 20.9029C15.8403 20.6021 16.4535 20.1618 16.9569 19.61C17.4603 19.0583 17.8427 18.4073 18.0796 17.699C18.2127 17.301 18.2983 16.8898 18.3352 16.4739C18.383 15.9359 18.7686 15.4561 19.3064 15.4053Z" fill="#BB80FF"/>
<path d="M55.9893 25.5V7.18066H51.3428V14.3662H44.043V7.18066H39.3838V25.5H44.043V18.124H51.3428V25.5H55.9893ZM58.5156 25.5H63.0098V11.6748H58.5156V25.5ZM60.7627 10.5576C62.0703 10.5576 63.0605 9.59277 63.0605 8.34863C63.0605 7.10449 62.0703 6.15234 60.7627 6.15234C59.4551 6.15234 58.4521 7.10449 58.4521 8.34863C58.4521 9.59277 59.4551 10.5576 60.7627 10.5576ZM65.2061 25.5H69.7129V18.2256C69.7129 16.2959 70.7412 15.2295 72.6328 15.2295C73.166 15.2295 73.6865 15.3311 74.0674 15.4834V11.6494C73.7627 11.5352 73.3818 11.4717 72.9248 11.4717C71.2998 11.4717 70.1826 12.4238 69.6748 14.29H69.5859V11.6748H65.2061V25.5ZM81.7354 25.8301C86.0898 25.8301 88.8066 23.2021 88.8066 18.5811C88.8066 14.0488 86.0518 11.3447 81.7354 11.3447C77.4443 11.3447 74.6641 14.0615 74.6641 18.5811C74.6641 23.1895 77.3809 25.8301 81.7354 25.8301ZM81.7354 22.5293C80.1865 22.5293 79.2344 21.1201 79.2344 18.5938C79.2344 16.1055 80.2119 14.6455 81.7354 14.6455C83.2715 14.6455 84.249 16.1055 84.249 18.5938C84.249 21.1201 83.2715 22.5293 81.7354 22.5293Z" fill="#1E293B"/>
</svg>
